
<svg width="99" height="118" viewBox="0 0 99 118" fill="none" xmlns="http://www.w3.org/2000/svg">
<g clip-path="url(#clip0_11_6)">
<path d="M91.8 15.6C80.9 -0.0999994 59.2 -4.7 43.6 5.2L16.1 22.8C8.6 27.5 3.4 35.2 1.9 43.9C0.600003 51.2 1.7 58.7 5.2 65.2C2.8 68.8 1.2 72.8 0.500003 77C-1.1 85.9 1 95.1 6.2 102.4C17.2 118.1 38.8 122.7 54.4 112.8L81.9 95.3C89.4 90.6 94.6 82.9 96.1 74.2C97.4 66.9 96.3 59.4 92.8 52.9C95.2 49.3 96.8 45.3 97.5 41.1C99.2 32.1 97.1 22.9 91.8 15.6Z" fill="#393939"/>
<path d="M40.9 103.9C32 106.2 22.7 102.7 17.5 95.2C14.3 90.8 13.1 85.3 14 79.9C14.2 79 14.4 78.2 14.6 77.3L15.1 75.7L16.5 76.7C19.8 79.1 23.4 80.9 27.3 82.1L28.3 82.4L28.2 83.4C28.1 84.8 28.5 86.3 29.3 87.5C30.9 89.8 33.7 90.9 36.4 90.2C37 90 37.6 89.8 38.1 89.5L65.5 72C66.9 71.1 67.8 69.8 68.1 68.2C68.4 66.6 68 64.9 67.1 63.6C65.5 61.3 62.7 60.3 60 61C59.4 61.2 58.8 61.4 58.3 61.7L47.8 68.4C46.1 69.5 44.2 70.3 42.2 70.8C33.3 73.1 24 69.6 18.8 62.1C15.7 57.7 14.4 52.2 15.4 46.8C16.3 41.6 19.5 36.9 24 34.1L51.5 16.6C53.2 15.5 55.1 14.7 57.1 14.1C66 11.8 75.3 15.3 80.5 22.8C83.7 27.2 84.9 32.7 84 38.1C83.8 39 83.6 39.8 83.3 40.7L82.8 42.3L81.4 41.3C78.1 38.9 74.5 37.1 70.6 35.9L69.6 35.6L69.7 34.6C69.8 33.2 69.4 31.7 68.6 30.5C67 28.2 64.2 27.2 61.5 27.9C60.9 28.1 60.3 28.3 59.8 28.6L32.4 46.1C31 47 30.1 48.3 29.8 49.9C29.5 51.5 29.9 53.2 30.8 54.5C32.4 56.8 35.2 57.8 37.9 57.1C38.5 56.9 39.1 56.7 39.6 56.4L50.1 49.7C51.8 48.6 53.7 47.8 55.7 47.2C64.6 44.9 73.9 48.4 79.1 55.9C82.3 60.3 83.5 65.8 82.6 71.2C81.7 76.4 78.5 81.1 74 83.9L46.5 101.4C44.8 102.5 42.9 103.3 40.9 103.9Z" fill="white"/>
</g>
<defs>
<clipPath id="clip0_11_6">
<rect width="98.1" height="118" fill="white"/>
</clipPath>
</defs>
</svg>
